<svg id="Layer_1" data-name="Layer 1" xmlns="http://www.w3.org/2000/svg" xmlns:xlink="http://www.w3.org/1999/xlink" viewBox="0 0 1448 962"><defs><style>.cls-1,.cls-9{stroke:#fff;stroke-width:5px;}.cls-2{fill:#fff;}.cls-3,.cls-9{fill:none;}.cls-4{fill:#45c6e5;}.cls-5{fill:#2fb8e3;}.cls-6{fill:#33469d;}.cls-7{fill:#2d419a;}.cls-8{clip-path:url(#clip-path);}.cls-10{mask:url(#mask);}.cls-11{fill:#cdebf4;fill-opacity:0.45;}.cls-12{mask:url(#mask-2);}.cls-13,.cls-20{font-size:12px;}.cls-13{font-family:MyriadPro-Regular, Myriad Pro;}.cls-14{letter-spacing:-0.03em;}.cls-15{letter-spacing:0em;}.cls-16{letter-spacing:-0.01em;}.cls-17{letter-spacing:-0.01em;}.cls-18{letter-spacing:-0.04em;}.cls-19{letter-spacing:-0.02em;}.cls-20{fill:#53c2b9;font-family:TwCenMT-CondensedExtraBold, Tw Cen MT Condensed Extra Bold;font-weight:800;}.cls-21{letter-spacing:-0.02em;}.cls-22{letter-spacing:0.03em;}.cls-23{letter-spacing:0.02em;}.cls-24{letter-spacing:-0.01em;}.cls-25{letter-spacing:-0.01em;}.cls-26{letter-spacing:0em;}.cls-27{letter-spacing:-0.01em;}.cls-28{letter-spacing:0em;}.cls-29{letter-spacing:-0.01em;}.cls-30{letter-spacing:0em;}</style><clipPath id="clip-path"><rect class="cls-3" x="229" y="103" width="1076" height="598" rx="30"/></clipPath><mask id="mask" x="84" y="-1" width="1376" height="1032" maskUnits="userSpaceOnUse"><g id="mask0_0_1" data-name="mask0 0 1"><rect class="cls-1" x="231.5" y="105.5" width="1071" height="593" rx="27.5"/></g></mask><mask id="mask-2" x="64" y="5" width="1376" height="1032" maskUnits="userSpaceOnUse"><g id="mask1_0_1" data-name="mask1 0 1"><rect class="cls-2" x="986" y="613" width="294" height="166" rx="20"/></g></mask><image id="image" width="512" height="512" xlink:href="../../Downloads/check.png"/></defs><rect class="cls-2" width="1448" height="962"/><path class="cls-4" d="M449,161.24H710.19A44.81,44.81,0,0,0,755,116.43h0a44.81,44.81,0,0,0-44.81-44.81H513a64,64,0,0,0-64,64Z"/><path class="cls-5" d="M280.81,735.81V474.62A44.81,44.81,0,0,0,236,429.81h0a44.81,44.81,0,0,0-44.81,44.81V671.79a64,64,0,0,0,64,64Z"/><path class="cls-6" d="M1261.19,735.81V474.62A44.81,44.81,0,0,1,1306,429.81h0a44.81,44.81,0,0,1,44.81,44.81V671.79a64,64,0,0,1-64,64Z"/><path class="cls-7" d="M769,161.24h261.19A44.81,44.81,0,0,0,1075,116.43h0a44.81,44.81,0,0,0-44.81-44.81H833a64,64,0,0,0-64,64Z"/><rect class="cls-2" x="535" y="72" width="18" height="90"/><rect class="cls-2" x="865" y="71" width="18" height="90"/><g class="cls-8"><rect x="229" y="103" width="1076" height="598" rx="30"/><image width="2700" height="1519" transform="translate(224.76 106) scale(0.4)" xlink:href="../../Downloads/DJI_0008.jpg"/></g><rect class="cls-9" x="231.5" y="105.5" width="1071" height="593" rx="27.5"/><g class="cls-10"><rect class="cls-3" x="84" y="-1" width="1376" height="1032"/></g><rect class="cls-2" x="156" y="251" width="136" height="136" rx="20" transform="translate(-86.82 83.79) rotate(-17.81)"/><path class="cls-11" d="M263.83,305.68c-15.29,53.75-5.6,50.64-30,58.49a46.5,46.5,0,0,1-28.44-88.54C229.79,267.77,279.13,251.93,263.83,305.68Z"/><rect class="cls-2" x="986" y="613" width="295" height="166" rx="20"/><g class="cls-12"><rect class="cls-3" x="64" y="5" width="1376" height="1032"/></g><image width="500" height="500" transform="translate(179.61 277.82) scale(0.16)" xlink:href="../../Downloads/3dicons-camera-dynamic-color.png"/><text class="cls-13" transform="translate(1042.53 672.47)"><tspan class="cls-14">W</tspan><tspan x="9.76" y="0">edding </tspan><tspan class="cls-15" x="48.02" y="0">P</tspan><tspan x="54.35" y="0">ho</tspan><tspan class="cls-16" x="67.6" y="0">t</tspan><tspan x="71.5" y="0">o</tspan><tspan class="cls-16" x="78.08" y="0">g</tspan><tspan class="cls-15" x="84.72" y="0">r</tspan><tspan x="88.58" y="0">ap</tspan><tspan class="cls-17" x="101.2" y="0">h</tspan><tspan x="107.7" y="0">y</tspan></text><text class="cls-13" transform="translate(1042.53 698.5)"><tspan class="cls-14">W</tspan><tspan x="9.76" y="0">edding</tspan><tspan class="cls-18" x="45.48" y="0"> </tspan><tspan class="cls-19" x="47.59" y="0">V</tspan><tspan x="54.1" y="0">ideo</tspan><tspan class="cls-16" x="76.27" y="0">g</tspan><tspan class="cls-15" x="82.91" y="0">r</tspan><tspan x="86.77" y="0">ap</tspan><tspan class="cls-17" x="99.38" y="0">h</tspan><tspan x="105.89" y="0">y</tspan></text><text class="cls-20" transform="translate(1054.28 639.02)">Camera <tspan class="cls-21" x="37.17" y="0">W</tspan><tspan x="46.05" y="0">orks O</tspan><tspan class="cls-22" x="75.6" y="0">f</tspan><tspan class="cls-23" x="79.29" y="0">f</tspan><tspan x="82.88" y="0">erings</tspan></text><use transform="translate(1016.41 657.41) scale(0.04)" xlink:href="#image"/><use transform="translate(1016.41 682.43) scale(0.04)" xlink:href="#image"/><text class="cls-13" transform="translate(1042.53 723.52)"><tspan class="cls-24">E</tspan><tspan class="cls-25" x="5.82" y="0">v</tspan><tspan x="11.47" y="0">e</tspan><tspan class="cls-26" x="17.48" y="0">n</tspan><tspan x="24.1" y="0">ts </tspan><tspan class="cls-15" x="35.36" y="0">P</tspan><tspan x="41.69" y="0">ho</tspan><tspan class="cls-27" x="54.94" y="0">t</tspan><tspan x="58.84" y="0">o/</tspan><tspan class="cls-19" x="69.54" y="0">V</tspan><tspan class="cls-28" x="76.04" y="0">ideo</tspan><tspan class="cls-27" x="98.22" y="0">g</tspan><tspan class="cls-29" x="104.86" y="0">r</tspan><tspan x="108.72" y="0">ap</tspan><tspan class="cls-17" x="121.33" y="0">h</tspan><tspan class="cls-30" x="127.83" y="0">y</tspan></text><use transform="translate(1016.41 707.45) scale(0.04)" xlink:href="#image"/></svg>